<svg xmlns="http://www.w3.org/2000/svg" viewBox="0 0 325.5 42.28"><defs><style>.cls-1{fill:#231f20;stroke:#231f20;stroke-miterlimit:10;stroke-width:2px;}</style></defs><title>Asset 1</title><g id="Layer_2" data-name="Layer 2"><g id="Layer_1-2" data-name="Layer 1"><line class="cls-1" x1="1" y1="41.59" x2="1" y2="8.25"/><line class="cls-1" x1="39.11" y1="41.59" x2="1" y2="0.74"/><line class="cls-1" x1="38.74" y1="33.99" x2="38.74" y2="0.46"/><line class="cls-1" x1="68.56" y1="40.59" x2="88.48" y2="0.46"/><line class="cls-1" x1="109.52" y1="40.04" x2="88.78" y2="0.46"/><line class="cls-1" x1="109.52" y1="40.04" x2="68.56" y2="40.59"/><line class="cls-1" x1="165.59" y1="1.27" x2="128.74" y2="1.27"/><line class="cls-1" x1="147.16" y1="40.86" x2="147.16" y2="9.53"/><line class="cls-1" x1="195.12" y1="41.27" x2="195.12" y2="1.27"/><line class="cls-1" x1="245.53" y1="40.31" x2="225.06" y2="1.27"/><line class="cls-1" x1="245.53" y1="40.31" x2="266.01" y2="1.27"/><line class="cls-1" x1="296.37" y1="1.27" x2="324.82" y2="1.27"/><line class="cls-1" x1="297.06" y1="41.14" x2="325.5" y2="41.14"/><line class="cls-1" x1="297.06" y1="20.79" x2="321.93" y2="20.79"/><line class="cls-1" x1="225.47" y1="1.27" x2="266.01" y2="1.27"/></g></g></svg>